<?xml version="1.0" standalone="no"?>
<!DOCTYPE svg PUBLIC "-//W3C//DTD SVG 20010904//EN"
 "http://www.w3.org/TR/2001/REC-SVG-20010904/DTD/svg10.dtd">
<svg version="1.0" xmlns="http://www.w3.org/2000/svg"
 width="512.000000pt" height="512.000000pt" viewBox="0 0 512.000000 512.000000"
 preserveAspectRatio="xMidYMid meet">

<g transform="translate(0.000000,512.000000) scale(0.100000,-0.100000)"
fill="#000000" stroke="none">
<path d="M641 4347 c-19 -7 -44 -25 -55 -40 -19 -26 -21 -44 -24 -228 l-4
-199 -224 0 c-251 0 -279 -6 -314 -62 -20 -33 -20 -46 -20 -1498 0 -1452 0
-1465 20 -1498 41 -67 -157 -62 2540 -62 2697 0 2499 -5 2540 62 20 33 20 46
20 1498 0 1452 0 1465 -20 1498 -40 66 71 62 -1679 62 l-1590 0 -3 199 c-3
184 -5 202 -24 228 -11 15 -36 33 -55 40 -48 17 -1060 17 -1108 0z m2056
-1033 c89 -9 218 -50 314 -100 313 -162 515 -460 548 -808 45 -474 -248 -915
-704 -1059 -304 -96 -646 -39 -901 151 -249 185 -394 454 -411 763 -30 537
373 1005 910 1059 80 7 126 6 244 -6z"/>
</g>
</svg>
